<svg xmlns="http://www.w3.org/2000/svg" xmlns:xlink="http://www.w3.org/1999/xlink" viewBox="0 0 430 430" width="430" height="430" preserveAspectRatio="xMidYMid meet" style="width: 100%; height: 100%; transform: translate3d(0px, 0px, 0px); content-visibility: visible;"><defs><clipPath id="__lottie_element_26"><rect width="430" height="430" x="0" y="0"/></clipPath><clipPath id="__lottie_element_28"><path d="M0,0 L430,0 L430,430 L0,430z"/></clipPath><g id="__lottie_element_61"><g transform="matrix(0.7831999659538269,0,0,0.8899999856948853,29.150001525878906,5.384110450744629)" opacity="1" style="display: block;"><g opacity="1" transform="matrix(1,0,0,1,250,349.6310119628906)"><path class="quinary" fill="rgb(242,76,0)" fill-opacity="1" d=" M37.5369987487793,-107.43199920654297 C37.5369987487793,-107.43199920654297 46.505001068115234,-106.93399810791016 46.505001068115234,-106.93399810791016 C89.98500061035156,-106.93399810791016 141.13299560546875,-35.9109992980957 141.13299560546875,7.568999767303467 C141.13299560546875,7.568999767303467 141.13299560546875,39.082000732421875 141.13299560546875,39.082000732421875 C141.13299560546875,47.54100036621094 134.27200317382812,54.402000427246094 125.81300354003906,54.402000427246094 C125.81300354003906,54.402000427246094 87.06400299072266,54.617000579833984 87.06400299072266,54.617000579833984 C48.57699966430664,57.60599899291992 49.06999969482422,71.43199920654297 16.898000717163086,71.43199920654297 C16.898000717163086,71.43199920654297 -16.898000717163086,71.43199920654297 -16.898000717163086,71.43199920654297 C-49.06999969482422,71.43199920654297 -48.57699966430664,57.60599899291992 -87.06400299072266,54.617000579833984 C-87.06400299072266,54.617000579833984 -106.49400329589844,54.617000579833984 -106.49400329589844,54.617000579833984 C-114.9530029296875,54.617000579833984 -121.81500244140625,47.75600051879883 -121.81500244140625,39.297000885009766 C-121.81500244140625,39.297000885009766 -121.81500244140625,7.784999847412109 -121.81500244140625,7.784999847412109 C-121.81500244140625,-35.69499969482422 -86.57599639892578,-70.93399810791016 -43.09600067138672,-70.93399810791016 C-43.09600067138672,-70.93399810791016 -34.12799835205078,-71.43199920654297 -34.12799835205078,-71.43199920654297"/></g></g></g><g id="__lottie_element_73"><g transform="matrix(0.8899999856948853,0,0,0.8899999856948853,11.34998893737793,-9.161500930786133)" opacity="1" style="display: block;"><g opacity="1" transform="matrix(1,0,0,1,249.43899536132812,220.58200073242188)"><path class="secondary" fill="rgb(255,199,56)" fill-opacity="1" d=" M17.965999603271484,-124.40399932861328 C17.965999603271484,-124.40399932861328 61.93199920654297,-80.26899719238281 61.93199920654297,-80.26899719238281 C61.93199920654297,-80.26899719238281 61.965999603271484,-13.8149995803833 61.965999603271484,-13.8149995803833 C61.965999603271484,19.990999221801758 34.553001403808594,47.40399932861328 0.746999979019165,47.40399932861328 C0.746999979019165,47.40399932861328 -0.746999979019165,47.40399932861328 -0.746999979019165,47.40399932861328 C-34.553001403808594,47.40399932861328 -61.965999603271484,19.990999221801758 -61.965999603271484,-13.8149995803833 C-61.965999603271484,-13.8149995803833 -61.93199920654297,-71.84300231933594 -61.93199920654297,-71.84300231933594"/></g></g></g><filter id="__lottie_element_79" filterUnits="objectBoundingBox" x="0%" y="0%" width="100%" height="100%"><feComponentTransfer in="SourceGraphic"><feFuncA type="table" tableValues="1.0 0.0"/></feComponentTransfer></filter><mask id="__lottie_element_73_2" mask-type="alpha"><g filter="url(#__lottie_element_79)"><rect width="430" height="430" x="0" y="0" fill="#ffffff" opacity="0"/><use xmlns:ns1="http://www.w3.org/1999/xlink" ns1:href="#__lottie_element_73"/></g></mask><filter id="__lottie_element_80" filterUnits="objectBoundingBox" x="0%" y="0%" width="100%" height="100%"><feComponentTransfer in="SourceGraphic"><feFuncA type="table" tableValues="1.0 0.0"/></feComponentTransfer></filter><mask id="__lottie_element_61_2" mask-type="alpha"><g filter="url(#__lottie_element_80)"><rect width="430" height="430" x="0" y="0" fill="#ffffff" opacity="0"/><use xmlns:ns2="http://www.w3.org/1999/xlink" ns2:href="#__lottie_element_61"/></g></mask></defs><g clip-path="url(#__lottie_element_26)"><g clip-path="url(#__lottie_element_28)" transform="matrix(1,0,0,1,0,0)" opacity="1" style="display: block;"><g transform="matrix(0.7132924199104309,-0.23176275193691254,0.23176275193691254,0.7132924199104309,-130.88778686523438,114.92227172851562)" opacity="1" style="display: block;"><g opacity="1" transform="matrix(0.9914248585700989,0.13067786395549774,-0.13067786395549774,0.9914248585700989,241.521484375,187.6923065185547)"><path class="octonary" fill="rgb(146,20,12)" fill-opacity="1" d=" M94.20166015625,132.69374084472656 C102.76388549804688,55.977970123291016 102.99600219726562,-100.45999908447266 0.4909999966621399,-100.45999908447266 C0.4909999966621399,-100.45999908447266 0.4909999966621399,-100.45999908447266 0.4909999966621399,-100.45999908447266 C0.4909999966621399,-100.45999908447266 -0.4909999966621399,-100.45999908447266 -0.4909999966621399,-100.45999908447266 C-0.4909999966621399,-100.45999908447266 -0.4909999966621399,-100.45999908447266 -0.4909999966621399,-100.45999908447266 C-102.99600219726562,-100.45999908447266 -88.70096588134766,69.64685821533203 -76.09294891357422,124.82633972167969"/></g></g><g transform="matrix(0.75,0,0,0.75,-71.5,33.740516662597656)" opacity="1" style="display: block;"><g opacity="1" transform="matrix(1,0,0,1,250,339.9259948730469)"><path class="nonary" fill="rgb(75,179,253)" fill-opacity="1" d=" M-47.641998291015625,-47.86199951171875 C-47.641998291015625,-47.86199951171875 -59.71200180053711,-45.5369987487793 -59.71200180053711,-45.5369987487793 C-101.14700317382812,-32.35900115966797 -121.96299743652344,-19.323999404907227 -121.96299743652344,24.1560001373291 C-121.96299743652344,24.1560001373291 -121.81500244140625,49.00199890136719 -121.81500244140625,49.00199890136719 C-121.81500244140625,57.46099853515625 -114.9530029296875,64.3219985961914 -106.49400329589844,64.3219985961914 C-106.49400329589844,64.3219985961914 -87.06400299072266,64.3219985961914 -87.06400299072266,64.3219985961914 C-48.57699966430664,67.31099700927734 -49.06999969482422,81.13700103759766 -16.898000717163086,81.13700103759766 C-16.898000717163086,81.13700103759766 16.898000717163086,81.13700103759766 16.898000717163086,81.13700103759766 C49.06999969482422,81.13700103759766 48.57699966430664,67.31099700927734 87.06400299072266,64.3219985961914 C87.06400299072266,64.3219985961914 106.49500274658203,64.3219985961914 106.49500274658203,64.3219985961914 C114.9540023803711,64.3219985961914 121.81500244140625,57.46099853515625 121.81500244140625,49.00199890136719 C121.81500244140625,49.00199890136719 121.96299743652344,20.1560001373291 121.96299743652344,20.1560001373291 C121.96299743652344,-23.323999404907227 72.70700073242188,-63.14400100708008 29.562999725341797,-57.75199890136719 C29.562999725341797,-57.75199890136719 19.597000122070312,-56.26499938964844 19.597000122070312,-56.26499938964844 C19.597000122070312,-56.26499938964844 19.579999923706055,-56.32500076293945 19.579999923706055,-56.32500076293945"/></g><g opacity="0.5" transform="matrix(1,0,0,1,250,339.9259948730469)" style="mix-blend-mode: multiply;"><path class="nonary" fill="rgb(75,179,253)" fill-opacity="1" d=" M-47.641998291015625,-47.86199951171875 C-47.641998291015625,-47.86199951171875 -59.71200180053711,-45.5369987487793 -59.71200180053711,-45.5369987487793 C-101.14700317382812,-32.35900115966797 -121.96299743652344,-19.323999404907227 -121.96299743652344,24.1560001373291 C-121.96299743652344,24.1560001373291 -121.81500244140625,49.00199890136719 -121.81500244140625,49.00199890136719 C-121.81500244140625,57.46099853515625 -114.9530029296875,64.3219985961914 -106.49400329589844,64.3219985961914 C-106.49400329589844,64.3219985961914 -87.06400299072266,64.3219985961914 -87.06400299072266,64.3219985961914 C-87.5,29.134000778198242 -93,-9.246999740600586 -63.803001403808594,-28.423999786376953"/></g><g opacity="1" transform="matrix(1,0,0,1,248.13499450683594,300.885009765625)"><path class="primary" fill="rgb(249,201,192)" fill-opacity="1" d=" M-50.04499816894531,-49.698001861572266 C-50.04499816894531,-49.698001861572266 -46.17399978637695,-10.619999885559082 -46.17399978637695,-10.619999885559082 C-46.17399978637695,-10.619999885559082 -56.63100051879883,-7.525000095367432 -59.965999603271484,-6.464000225067139 C-63.30099868774414,-5.4029998779296875 -66.80400085449219,-3.632999897003174 -68.2020034790039,-2.617000102996826 C-59.87200164794922,19.31999969482422 -37.834999084472656,33.84700012207031 -7.798999786376953,30.093000411987305 C22.514999389648438,26.30500030517578 44.85599899291992,4.5980000495910645 42.78799819946289,-19.04800033569336 C42.78799819946289,-19.04800033569336 38.60100173950195,-20.01300048828125 35.63199996948242,-19.57900047302246 C30.56100082397461,-18.83799934387207 21.207000732421875,-19.805999755859375 21.207000732421875,-19.805999755859375 C21.207000732421875,-19.805999755859375 17.35099983215332,-58.00400161743164 17.35099983215332,-58.00400161743164 C17.35099983215332,-58.00400161743164 -50.04499816894531,-49.698001861572266 -50.04499816894531,-49.698001861572266z"/></g><g opacity="0.5" transform="matrix(1,0,0,1,248.13499450683594,300.885009765625)" style="mix-blend-mode: multiply;"><path class="primary" fill="rgb(249,201,192)" fill-opacity="1" d=" M-50.04499816894531,-49.698001861572266 C-50.04499816894531,-49.698001861572266 -46.17399978637695,-10.619999885559082 -46.17399978637695,-10.619999885559082 C-46.17399978637695,-10.619999885559082 -56.63100051879883,-7.525000095367432 -59.965999603271484,-6.464000225067139 C-63.30099868774414,-5.4029998779296875 -66.80400085449219,-3.632999897003174 -68.2020034790039,-2.617000102996826 C-66.1709976196289,2.7330000400543213 -65.43000030517578,6.327000141143799 -62.000999450683594,10.861000061035156 C-40.74800109863281,-2.760999917984009 9.309000015258789,-1.3890000581741333 20.454999923706055,-32.4370002746582 C20.454999923706055,-32.4370002746582 20.55299949645996,-32.380001068115234 20.55299949645996,-32.380001068115234 C20.55299949645996,-32.380001068115234 17.35099983215332,-58.00400161743164 17.35099983215332,-58.00400161743164 C17.35099983215332,-58.00400161743164 -50.04499816894531,-49.698001861572266 -50.04499816894531,-49.698001861572266z"/></g></g><g transform="matrix(0.7132924199104309,-0.23176275193691254,0.23176275193691254,0.7132924199104309,-130.88778686523438,114.92227172851562)" opacity="1" style="display: block;"><g opacity="1" transform="matrix(1,0,0,1,249.3040008544922,218.3820037841797)"><path class="primary" fill="rgb(249,201,192)" fill-opacity="1" d=" M25.468000411987305,-115.31099700927734 C25.468000411987305,-115.31099700927734 62.30799865722656,-82.2040023803711 62.30799865722656,-82.2040023803711 C62.30799865722656,-82.2040023803711 62.57500076293945,-13.951000213623047 62.57500076293945,-13.951000213623047 C62.57500076293945,20.187999725341797 34.89400100708008,47.869998931884766 0.7549999952316284,47.869998931884766 C0.7549999952316284,47.869998931884766 -0.7549999952316284,47.869998931884766 -0.7549999952316284,47.869998931884766 C-34.89400100708008,47.869998931884766 -62.57500076293945,20.187999725341797 -62.57500076293945,-13.951000213623047 C-62.57500076293945,-13.951000213623047 -62.452999114990234,-56.275001525878906 -62.452999114990234,-56.275001525878906"/></g><g opacity="0.5" transform="matrix(1,0,0,1,249.3040008544922,218.3820037841797)" style="mix-blend-mode: multiply;"><path class="primary" fill="rgb(249,201,192)" fill-opacity="1" d=" M-50.42499923706055,-72.87000274658203 C-50.42499923706055,-72.87000274658203 -42.194000244140625,-62.9630012512207 -42.194000244140625,-62.9630012512207 C-42.194000244140625,-62.9630012512207 -42.194000244140625,-5.960000038146973 -42.194000244140625,-5.960000038146973 C-41.972999572753906,23.42300033569336 -2.7230000495910645,44.42300033569336 34.249000549316406,38.01599884033203 C24.597000122070312,44.250999450683594 13.097999572753906,47.86899948120117 0.7549999952316284,47.86899948120117 C0.7549999952316284,47.86899948120117 -0.7549999952316284,47.86899948120117 -0.7549999952316284,47.86899948120117 C-34.89400100708008,47.86899948120117 -62.57500076293945,20.187999725341797 -62.57500076293945,-13.951000213623047 C-62.57500076293945,-13.951000213623047 -62.481998443603516,-55.27399826049805 -62.481998443603516,-55.27399826049805"/></g><g opacity="1" transform="matrix(1,0,0,1,248.46400451660156,143.63499450683594)"><path class="octonary" fill="rgb(146,20,12)" fill-opacity="1" d=" M-65.34700012207031,-19.503999710083008 C-69.33000183105469,-4.955999851226807 -65.677001953125,31.334999084472656 -65.677001953125,31.334999084472656 C-64.34600067138672,31.062000274658203 -63.025001525878906,30.76799964904785 -61.736000061035156,30.475000381469727 C12.956000328063965,13.567999839782715 25.052000045776367,-31.334999084472656 25.052000045776367,-31.334999084472656 C47.319000244140625,-19.145000457763672 63.41400146484375,9.467000007629395 63.41400146484375,26.8799991607666 C63.48699951171875,28.892000198364258 63.41400146484375,30.04599952697754 63.41400146484375,30.04599952697754 C67.28399658203125,23.773000717163086 69.7229995727539,11.380999565124512 62.952999114990234,-16.097000122070312 C62.952999114990234,-16.097000122070312 42.034000396728516,-52.74399948120117 0.035999998450279236,-51.676998138427734"/></g></g><g transform="matrix(0.7132924199104309,0.23176275193691254,-0.23176275193691254,0.7132924199104309,207.1924591064453,-0.636505126953125)" opacity="1" style="display: block;"><g opacity="1" transform="matrix(0.9919102787971497,-0.1269407421350479,0.1269407421350479,0.9919102787971497,256.86395263671875,187.72122192382812)"><path class="denary" fill="rgb(100,110,120)" fill-opacity="1" d=" M84.92655944824219,95.75181579589844 C82.84058380126953,49.96592330932617 99.5362319946289,-98.90568542480469 0.4909999966621399,-100.45999908447266 C0.4909999966621399,-100.45999908447266 0.4909999966621399,-100.45999908447266 0.4909999966621399,-100.45999908447266 C0.4909999966621399,-100.45999908447266 -0.4909999966621399,-100.45999908447266 -0.4909999966621399,-100.45999908447266 C-0.4909999966621399,-100.45999908447266 -0.4909999966621399,-100.45999908447266 -0.4909999966621399,-100.45999908447266 C-115.96417999267578,-103.7523422241211 -97.98777770996094,54.93657684326172 -94.09701538085938,110.03042602539062"/></g></g><g transform="matrix(0.75,0,0,0.75,128.5,33.740516662597656)" opacity="1" style="display: block;"><g opacity="1" transform="matrix(1,0,0,1,250,339.9259948730469)"><path class="septenary" fill="rgb(242,139,168)" fill-opacity="1" d=" M-19.024999618530273,-58.518001556396484 C-19.024999618530273,-58.518001556396484 -30.757999420166016,-57.757999420166016 -30.757999420166016,-57.757999420166016 C-73.84600067138672,-63.58700180053711 -121.81500244140625,-25.989999771118164 -121.81500244140625,17.489999771118164 C-121.81500244140625,17.489999771118164 -121.81500244140625,49.00199890136719 -121.81500244140625,49.00199890136719 C-121.81500244140625,57.46099853515625 -114.9530029296875,64.3219985961914 -106.49400329589844,64.3219985961914 C-106.49400329589844,64.3219985961914 -87.06400299072266,64.3219985961914 -87.06400299072266,64.3219985961914 C-48.57699966430664,67.31099700927734 -49.06999969482422,81.13700103759766 -16.898000717163086,81.13700103759766 C-16.898000717163086,81.13700103759766 16.898000717163086,81.13700103759766 16.898000717163086,81.13700103759766 C49.06999969482422,81.13700103759766 48.57699966430664,67.31099700927734 87.06400299072266,64.3219985961914 C87.06400299072266,64.3219985961914 106.49500274658203,64.3219985961914 106.49500274658203,64.3219985961914 C114.9540023803711,64.3219985961914 121.81500244140625,57.46099853515625 121.81500244140625,49.00199890136719 C121.81500244140625,49.00199890136719 121.87999725341797,24.239999771118164 121.87999725341797,24.239999771118164 C121.87999725341797,-19.239999771118164 98,-32.83100128173828 55.78799819946289,-47.38999938964844 C55.78799819946289,-47.38999938964844 46.34199905395508,-47.4739990234375 46.34199905395508,-47.4739990234375 C46.34199905395508,-47.4739990234375 46.34600067138672,-47.52799987792969 46.34600067138672,-47.52799987792969"/></g><g opacity="0.5" transform="matrix(1,0,0,1,250,339.9259948730469)" style="mix-blend-mode: multiply;"><path class="septenary" fill="rgb(242,139,168)" fill-opacity="1" d=" M-19.024999618530273,-58.518001556396484 C-19.024999618530273,-58.518001556396484 -30.757999420166016,-57.757999420166016 -30.757999420166016,-57.757999420166016 C-73.84600067138672,-63.58700180053711 -121.81500244140625,-25.989999771118164 -121.81500244140625,17.489999771118164 C-121.81500244140625,17.489999771118164 -121.81500244140625,49.00199890136719 -121.81500244140625,49.00199890136719 C-121.81500244140625,57.46099853515625 -114.9530029296875,64.3219985961914 -106.49400329589844,64.3219985961914 C-106.49400329589844,64.3219985961914 -87.06400299072266,64.3219985961914 -87.06400299072266,64.3219985961914 C-87.5,29.134000778198242 -82.625,-31.68199920654297 -38.987998962402344,-42.345001220703125"/></g><g opacity="1" transform="matrix(1,0,0,1,248.13499450683594,300.885009765625)"><path class="tertiary" fill="rgb(178,104,54)" fill-opacity="1" d=" M-10.1899995803833,-58.56700134277344 C-10.1899995803833,-58.56700134277344 -17.08300018310547,-21.316999435424805 -17.08300018310547,-21.316999435424805 C-17.08300018310547,-21.316999435424805 -27.35300064086914,-19.125999450683594 -30.820999145507812,-19.594999313354492 C-34.28900146484375,-20.06399917602539 -38.2130012512207,-19.964000701904297 -39.9109992980957,-19.645000457763672 C-41.77399826049805,3.746000051498413 -19.768999099731445,25.320999145507812 10.227999687194824,29.378999710083008 C40.50199890136719,33.474998474121094 70.11499786376953,16.461000442504883 68.40899658203125,-4.927000045776367 C68.40899658203125,-4.927000045776367 64.82099914550781,-7.054999828338623 61.88999938964844,-7.673999786376953 C56.88399887084961,-8.732000350952148 48.861000061035156,-10.569999694824219 48.861000061035156,-10.569999694824219 C48.861000061035156,-10.569999694824219 57.08700180053711,-49.3489990234375 57.08700180053711,-49.3489990234375 C57.08700180053711,-49.3489990234375 -10.1899995803833,-58.56700134277344 -10.1899995803833,-58.56700134277344z"/></g><g opacity="0.5" transform="matrix(1,0,0,1,248.13499450683594,300.885009765625)" style="mix-blend-mode: multiply;"><path class="tertiary" fill="rgb(178,104,54)" fill-opacity="1" d=" M-10.1899995803833,-58.56700134277344 C-10.1899995803833,-58.56700134277344 -17.08300018310547,-21.316999435424805 -17.08300018310547,-21.316999435424805 C-17.08300018310547,-21.316999435424805 -27.35300064086914,-19.125999450683594 -30.820999145507812,-19.594999313354492 C-34.28900146484375,-20.06399917602539 -38.2130012512207,-19.964000701904297 -39.9109992980957,-19.645000457763672 C-40.3650016784668,-13.940999984741211 -39.400001525878906,-8.343999862670898 -37.24599838256836,-3.0840001106262207 C-13.21399974822998,-10.812999725341797 34.823001861572266,3.3239998817443848 53.54399871826172,-23.83799934387207 C53.54399871826172,-23.83799934387207 53.624000549316406,-23.757999420166016 53.624000549316406,-23.757999420166016 C53.624000549316406,-23.757999420166016 57.08700180053711,-49.3489990234375 57.08700180053711,-49.3489990234375 C57.08700180053711,-49.3489990234375 -10.1899995803833,-58.56700134277344 -10.1899995803833,-58.56700134277344z"/></g></g><g transform="matrix(0.7132924199104309,0.23176275193691254,-0.23176275193691254,0.7132924199104309,207.1924591064453,-0.636505126953125)" opacity="1" style="display: block;"><g opacity="1" transform="matrix(1,0,0,1,249.3040008544922,218.3820037841797)"><path class="tertiary" fill="rgb(178,104,54)" fill-opacity="1" d=" M25.468000411987305,-115.31099700927734 C25.468000411987305,-115.31099700927734 62.30799865722656,-82.2040023803711 62.30799865722656,-82.2040023803711 C62.30799865722656,-82.2040023803711 62.57500076293945,-13.951000213623047 62.57500076293945,-13.951000213623047 C62.57500076293945,20.187999725341797 34.89400100708008,47.869998931884766 0.7549999952316284,47.869998931884766 C0.7549999952316284,47.869998931884766 -0.7549999952316284,47.869998931884766 -0.7549999952316284,47.869998931884766 C-34.89400100708008,47.869998931884766 -62.57500076293945,20.187999725341797 -62.57500076293945,-13.951000213623047 C-62.57500076293945,-13.951000213623047 -62.452999114990234,-56.275001525878906 -62.452999114990234,-56.275001525878906"/></g><g opacity="0.5" transform="matrix(1,0,0,1,249.3040008544922,218.3820037841797)" style="mix-blend-mode: multiply;"><path class="tertiary" fill="rgb(178,104,54)" fill-opacity="1" d=" M-50.42499923706055,-72.87000274658203 C-50.42499923706055,-72.87000274658203 -42.194000244140625,-62.9630012512207 -42.194000244140625,-62.9630012512207 C-42.194000244140625,-62.9630012512207 -42.194000244140625,-5.960000038146973 -42.194000244140625,-5.960000038146973 C-41.972999572753906,23.42300033569336 -2.7230000495910645,44.42300033569336 34.249000549316406,38.01599884033203 C24.597000122070312,44.250999450683594 13.097999572753906,47.86899948120117 0.7549999952316284,47.86899948120117 C0.7549999952316284,47.86899948120117 -0.7549999952316284,47.86899948120117 -0.7549999952316284,47.86899948120117 C-34.89400100708008,47.86899948120117 -62.57500076293945,20.187999725341797 -62.57500076293945,-13.951000213623047 C-62.57500076293945,-13.951000213623047 -62.481998443603516,-55.27399826049805 -62.481998443603516,-55.27399826049805"/></g><g opacity="1" transform="matrix(1,0,0,1,248.46400451660156,143.63499450683594)"><path class="denary" fill="rgb(100,110,120)" fill-opacity="1" d=" M-65.34700012207031,-19.503999710083008 C-69.33000183105469,-4.955999851226807 -65.677001953125,31.334999084472656 -65.677001953125,31.334999084472656 C-64.34600067138672,31.062000274658203 -63.025001525878906,30.76799964904785 -61.736000061035156,30.475000381469727 C12.956000328063965,13.567999839782715 25.052000045776367,-31.334999084472656 25.052000045776367,-31.334999084472656 C47.319000244140625,-19.145000457763672 63.41400146484375,9.467000007629395 63.41400146484375,26.8799991607666 C63.48699951171875,28.892000198364258 63.41400146484375,30.04599952697754 63.41400146484375,30.04599952697754 C67.28399658203125,23.773000717163086 67.83899688720703,7.114999771118164 67.04199981689453,-18.974000930786133 C67.04199981689453,-18.974000930786133 42.034000396728516,-52.74399948120117 0.035999998450279236,-51.676998138427734"/></g></g><g transform="matrix(0.8899999856948853,0,0,0.8899999856948853,-6.4499969482421875,-3.5158891677856445)" opacity="1" style="display: block;"><g opacity="1" transform="matrix(1,0,0,1,250,349.6310119628906)"><path class="quinary" fill="rgb(242,76,0)" fill-opacity="1" d=" M34.12799835205078,-71.43199920654297 C34.12799835205078,-71.43199920654297 43.09600067138672,-70.93399810791016 43.09600067138672,-70.93399810791016 C86.57599639892578,-70.93399810791016 121.81500244140625,-35.69499969482422 121.81500244140625,7.784999847412109 C121.81500244140625,7.784999847412109 121.81500244140625,39.297000885009766 121.81500244140625,39.297000885009766 C121.81500244140625,47.75600051879883 114.9530029296875,54.617000579833984 106.49400329589844,54.617000579833984 C106.49400329589844,54.617000579833984 87.06400299072266,54.617000579833984 87.06400299072266,54.617000579833984 C48.57699966430664,57.60599899291992 49.06999969482422,71.43199920654297 16.898000717163086,71.43199920654297 C16.898000717163086,71.43199920654297 -16.898000717163086,71.43199920654297 -16.898000717163086,71.43199920654297 C-49.06999969482422,71.43199920654297 -48.57699966430664,57.60599899291992 -87.06400299072266,54.617000579833984 C-87.06400299072266,54.617000579833984 -106.49400329589844,54.617000579833984 -106.49400329589844,54.617000579833984 C-114.9530029296875,54.617000579833984 -121.81500244140625,47.75600051879883 -121.81500244140625,39.297000885009766 C-121.81500244140625,39.297000885009766 -121.81500244140625,7.784999847412109 -121.81500244140625,7.784999847412109 C-121.81500244140625,-35.69499969482422 -86.57599639892578,-70.93399810791016 -43.09600067138672,-70.93399810791016 C-43.09600067138672,-70.93399810791016 -34.12799835205078,-71.43199920654297 -34.12799835205078,-71.43199920654297"/></g></g><g mask="url(#__lottie_element_61_2)" style="mix-blend-mode: multiply; display: block;"><g transform="matrix(0.8899999856948853,0,0,0.8899999856948853,-6.4499969482421875,-3.5158891677856445)" opacity="0.5"><g opacity="1" transform="matrix(1,0,0,1,250,349.6310119628906)"><path class="quinary" fill="rgb(242,76,0)" fill-opacity="1" d=" M34.12799835205078,-71.43199920654297 C34.12799835205078,-71.43199920654297 43.09600067138672,-70.93399810791016 43.09600067138672,-70.93399810791016 C86.57599639892578,-70.93399810791016 121.81500244140625,-35.69499969482422 121.81500244140625,7.784999847412109 C121.81500244140625,7.784999847412109 121.81500244140625,39.297000885009766 121.81500244140625,39.297000885009766 C121.81500244140625,47.75600051879883 114.9530029296875,54.617000579833984 106.49400329589844,54.617000579833984 C106.49400329589844,54.617000579833984 87.06400299072266,54.617000579833984 87.06400299072266,54.617000579833984 C48.57699966430664,57.60599899291992 49.06999969482422,71.43199920654297 16.898000717163086,71.43199920654297 C16.898000717163086,71.43199920654297 -16.898000717163086,71.43199920654297 -16.898000717163086,71.43199920654297 C-49.06999969482422,71.43199920654297 -48.57699966430664,57.60599899291992 -87.06400299072266,54.617000579833984 C-87.06400299072266,54.617000579833984 -106.49400329589844,54.617000579833984 -106.49400329589844,54.617000579833984 C-114.9530029296875,54.617000579833984 -121.81500244140625,47.75600051879883 -121.81500244140625,39.297000885009766 C-121.81500244140625,39.297000885009766 -121.81500244140625,7.784999847412109 -121.81500244140625,7.784999847412109 C-121.81500244140625,-35.69499969482422 -86.57599639892578,-70.93399810791016 -43.09600067138672,-70.93399810791016 C-43.09600067138672,-70.93399810791016 -34.12799835205078,-71.43199920654297 -34.12799835205078,-71.43199920654297"/></g></g></g><g transform="matrix(0.8899999856948853,0,0,0.8899999856948853,-6.4499969482421875,-3.5158891677856445)" opacity="1" style="display: block;"><g opacity="1" transform="matrix(1,0,0,1,300.9429931640625,362.25299072265625)"><path class="quaternary" fill="rgb(235,230,239)" fill-opacity="1" d=" M-18.309999465942383,0.5090000033378601 C-18.309999465942383,0.5090000033378601 -18.309999465942383,0.5090000033378601 -18.309999465942383,0.5090000033378601 C-18.309999465942383,-9.619999885559082 -17.27400016784668,-17.832000732421875 -15.996999740600586,-17.832000732421875 C-15.996999740600586,-17.832000732421875 -15.753000259399414,-17.832000732421875 -15.753000259399414,-17.832000732421875 C-15.206999778747559,-17.815000534057617 -13.373000144958496,-16.492000579833984 -9.746000289916992,-12.746000289916992 C-3.246999979019165,-19.097999572753906 3.25,-19.097999572753906 9.746000289916992,-12.746000289916992 C13.373000144958496,-16.492000579833984 15.206999778747559,-17.815000534057617 15.753000259399414,-17.832000732421875 C15.753000259399414,-17.832000732421875 15.996999740600586,-17.832000732421875 15.996999740600586,-17.832000732421875 C17.27400016784668,-17.832000732421875 18.309999465942383,-9.619999885559082 18.309999465942383,0.5090000033378601 C18.309999465942383,0.5090000033378601 18.309999465942383,0.5090000033378601 18.309999465942383,0.5090000033378601 C18.309999465942383,0.5090000033378601 18.309999465942383,-0.6019999980926514 18.309999465942383,-0.6019999980926514 C18.309999465942383,-0.6019999980926514 18.309999465942383,1.6399999856948853 18.309999465942383,1.6399999856948853 C18.309999465942383,10.583000183105469 11.060999870300293,17.832000732421875 2.118000030517578,17.832000732421875 C2.118000030517578,17.832000732421875 -2.117000102996826,17.832000732421875 -2.117000102996826,17.832000732421875 C-11.0600004196167,17.832000732421875 -18.30900001525879,10.583000183105469 -18.30900001525879,1.6399999856948853 C-18.30900001525879,1.6399999856948853 -18.30900001525879,-0.6019999980926514 -18.30900001525879,-0.6019999980926514"/><path stroke-linecap="round" stroke-linejoin="round" fill-opacity="0" class="quaternary" stroke="rgb(235,230,239)" stroke-opacity="1" stroke-width="4.5" d=" M-18.309999465942383,0.5090000033378601 C-18.309999465942383,0.5090000033378601 -18.309999465942383,0.5090000033378601 -18.309999465942383,0.5090000033378601 C-18.309999465942383,-9.619999885559082 -17.27400016784668,-17.832000732421875 -15.996999740600586,-17.832000732421875 C-15.996999740600586,-17.832000732421875 -15.753000259399414,-17.832000732421875 -15.753000259399414,-17.832000732421875 C-15.206999778747559,-17.815000534057617 -13.373000144958496,-16.492000579833984 -9.746000289916992,-12.746000289916992 C-3.246999979019165,-19.097999572753906 3.25,-19.097999572753906 9.746000289916992,-12.746000289916992 C13.373000144958496,-16.492000579833984 15.206999778747559,-17.815000534057617 15.753000259399414,-17.832000732421875 C15.753000259399414,-17.832000732421875 15.996999740600586,-17.832000732421875 15.996999740600586,-17.832000732421875 C17.27400016784668,-17.832000732421875 18.309999465942383,-9.619999885559082 18.309999465942383,0.5090000033378601 C18.309999465942383,0.5090000033378601 18.309999465942383,0.5090000033378601 18.309999465942383,0.5090000033378601 C18.309999465942383,0.5090000033378601 18.309999465942383,-0.6019999980926514 18.309999465942383,-0.6019999980926514 C18.309999465942383,-0.6019999980926514 18.309999465942383,1.6399999856948853 18.309999465942383,1.6399999856948853 C18.309999465942383,10.583000183105469 11.060999870300293,17.832000732421875 2.118000030517578,17.832000732421875 C2.118000030517578,17.832000732421875 -2.117000102996826,17.832000732421875 -2.117000102996826,17.832000732421875 C-11.0600004196167,17.832000732421875 -18.30900001525879,10.583000183105469 -18.30900001525879,1.6399999856948853 C-18.30900001525879,1.6399999856948853 -18.30900001525879,-0.6019999980926514 -18.30900001525879,-0.6019999980926514"/></g><g opacity="1" transform="matrix(1,0,0,1,248.75399780273438,284.14599609375)"><path class="secondary" fill="rgb(255,199,56)" fill-opacity="1" d=" M-32.882999420166016,-43.18899917602539 C-32.882999420166016,-43.18899917602539 -32.882999420166016,-5.947000026702881 -32.882999420166016,-5.947000026702881 C-32.882999420166016,11.522000312805176 -18.71500015258789,25.68899917602539 -1.246000051498413,25.68899917602539 C-1.246000051498413,25.68899917602539 1.246000051498413,25.68899917602539 1.246000051498413,25.68899917602539 C18.71500015258789,25.68899917602539 32.882999420166016,11.522000312805176 32.882999420166016,-5.947000026702881 C32.882999420166016,-5.947000026702881 32.882999420166016,-42.3489990234375 32.882999420166016,-42.3489990234375"/></g><g opacity="0.5" transform="matrix(1,0,0,1,248.75399780273438,284.14599609375)" style="mix-blend-mode: multiply;"><path class="secondary" fill="rgb(255,199,56)" fill-opacity="1" d=" M-32.882999420166016,-43.18899917602539 C-32.882999420166016,-43.18899917602539 -32.88694381713867,-11.190535545349121 -32.88694381713867,-11.190535545349121 C-32.88694381713867,-7.6605353355407715 -32.586875915527344,-5.812955379486084 -31.96043586730957,-3.633496046066284 C-20.771453857421875,-1.785724401473999 -15.640766143798828,-1.9410349130630493 -1.931445598602295,-3.0667972564697266 C-1.931445598602295,-3.0667972564697266 0.5191293358802795,-3.2674400806427 0.5191293358802795,-3.2674400806427 C17.701282501220703,-4.678839206695557 27.57210922241211,-9.320918083190918 32.84111022949219,-12.062997817993164 C32.84111022949219,-12.062997817993164 32.882999420166016,-42.3489990234375 32.882999420166016,-42.3489990234375"/></g></g><g transform="matrix(0.8899999856948853,0,0,0.8899999856948853,-6.4499969482421875,-9.161500930786133)" opacity="1" style="display: block;"><g opacity="1" transform="matrix(1,0,0,1,249.43899536132812,220.58200073242188)"><path class="secondary" fill="rgb(255,199,56)" fill-opacity="1" d=" M39.965999603271484,-116.40399932861328 C39.965999603271484,-116.40399932861328 61.93199920654297,-80.26899719238281 61.93199920654297,-80.26899719238281 C61.93199920654297,-80.26899719238281 61.965999603271484,-13.8149995803833 61.965999603271484,-13.8149995803833 C61.965999603271484,19.990999221801758 34.553001403808594,47.40399932861328 0.746999979019165,47.40399932861328 C0.746999979019165,47.40399932861328 -0.746999979019165,47.40399932861328 -0.746999979019165,47.40399932861328 C-34.553001403808594,47.40399932861328 -61.965999603271484,19.990999221801758 -61.965999603271484,-13.8149995803833 C-61.965999603271484,-13.8149995803833 -61.93199920654297,-71.84300231933594 -61.93199920654297,-71.84300231933594"/></g></g><g mask="url(#__lottie_element_73_2)" style="mix-blend-mode: multiply; display: block;"><g transform="matrix(0.8899999856948853,0,0,0.8899999856948853,-6.4499969482421875,-9.161500930786133)" opacity="0.5"><g opacity="1" transform="matrix(1,0,0,1,249.43899536132812,220.58200073242188)"><path class="secondary" fill="rgb(255,199,56)" fill-opacity="1" d=" M29.965999603271484,-121.40399932861328 C29.965999603271484,-121.40399932861328 61.93199920654297,-80.26899719238281 61.93199920654297,-80.26899719238281 C61.93199920654297,-80.26899719238281 61.965999603271484,-13.8149995803833 61.965999603271484,-13.8149995803833 C61.965999603271484,19.990999221801758 34.553001403808594,47.40399932861328 0.746999979019165,47.40399932861328 C0.746999979019165,47.40399932861328 -0.746999979019165,47.40399932861328 -0.746999979019165,47.40399932861328 C-34.553001403808594,47.40399932861328 -61.965999603271484,19.990999221801758 -61.965999603271484,-13.8149995803833 C-61.965999603271484,-13.8149995803833 -61.93199920654297,-71.84300231933594 -61.93199920654297,-71.84300231933594"/></g></g></g><g transform="matrix(0.8899999856948853,0,0,0.8899999856948853,-6.4499969482421875,-9.161500930786133)" opacity="1" style="display: block;"><g opacity="1" transform="matrix(1,0,0,1,245.9720001220703,128.26400756835938)"><path stroke-linecap="round" stroke-linejoin="round" fill-opacity="0" class="senary" stroke="rgb(58,51,71)" stroke-opacity="1" stroke-width="3" d=" M65.43299865722656,48.04800033569336 C65.43299865722656,48.04800033569336 68.22470092773438,18.333053588867188 27.619701385498047,-2.8409464359283447 C27.619701385498047,-2.8409464359283447 12.66756534576416,35.02561569213867 -62.39899826049805,49.32699966430664 C-62.39899826049805,49.32699966430664 -88.8714828491211,-31.344701766967773 -55.711483001708984,-47.1163444519043 C-51.996482849121094,-48.88292694091797 -45.900482177734375,-48.70311737060547 -42.29548263549805,-46.78605651855469 C-37.23548126220703,-44.09530258178711 -32.159481048583984,-39.710289001464844 -28.95948028564453,-37.44706344604492 C-26.530481338500977,-35.728904724121094 -23.418481826782227,-34.81256866455078 -20.231481552124023,-34.942352294921875 C-15.838480949401855,-35.12156295776367 -9.754085540771484,-36.16828918457031 -3.7480854988098145,-38.84337615966797 C44.30391311645508,-54.706634521484375 73.15645599365234,-36.56868362426758 72.5704574584961,-5.002017974853516 C72.02545166015625,24.372943878173828 74.89900207519531,42.069000244140625 65.43299865722656,48.04800033569336z"/><path class="senary" fill="rgb(58,51,71)" fill-opacity="1" d=" M65.43299865722656,48.04800033569336 C65.43299865722656,48.04800033569336 68.22470092773438,18.333053588867188 27.619701385498047,-2.8409464359283447 C27.619701385498047,-2.8409464359283447 12.66756534576416,35.02561569213867 -62.39899826049805,49.32699966430664 C-62.39899826049805,49.32699966430664 -88.8714828491211,-31.344701766967773 -55.711483001708984,-47.1163444519043 C-51.996482849121094,-48.88292694091797 -45.900482177734375,-48.70311737060547 -42.29548263549805,-46.78605651855469 C-37.23548126220703,-44.09530258178711 -32.159481048583984,-39.710289001464844 -28.95948028564453,-37.44706344604492 C-26.530481338500977,-35.728904724121094 -23.418481826782227,-34.81256866455078 -20.231481552124023,-34.942352294921875 C-15.838480949401855,-35.12156295776367 -9.754085540771484,-36.16828918457031 -3.7480854988098145,-38.84337615966797 C44.30391311645508,-54.706634521484375 73.15645599365234,-36.56868362426758 72.5704574584961,-5.002017974853516 C72.02545166015625,24.372943878173828 74.89900207519531,42.069000244140625 65.43299865722656,48.04800033569336z"/></g></g></g></g></svg>